<svg width="14" height="15" viewBox="0 0 14 15" fill="none" xmlns="http://www.w3.org/2000/svg">
<path d="M7 0.5C3.13306 0.5 0 3.63306 0 7.5C0 11.3669 3.13306 14.5 7 14.5C10.8669 14.5 14 11.3669 14 7.5C14 3.63306 10.8669 0.5 7 0.5ZM8.61169 10.3819L6.12218 8.57258C6.03468 8.50766 5.98387 8.40605 5.98387 8.29879V3.54839C5.98387 3.3621 6.13629 3.20968 6.32258 3.20968H7.67742C7.86371 3.20968 8.01613 3.3621 8.01613 3.54839V7.43508L9.80847 8.73911C9.96089 8.84919 9.99194 9.06089 9.88186 9.21331L9.08589 10.3085C8.97581 10.4581 8.76411 10.4919 8.61169 10.3819Z" fill="#355EFC"/>
</svg>
